With: Jessica Alba, Rowan Blanchard and Jeremy Piven

Nederlands gesproken,
De tweeling Rebecca en Cecil kan niet overweg met hun stiefmoeder Marissa Cortez Wilson die met hun vader Wilbur, een verslaggever die op zoek gaat naar spionnen, is getrouwd. Wat ze echter niet weten is dat Marissa een ex-spionne is voor de OSS (Organisatie van Super Spionnen), een organisatie die is uitgegroeid tot 's werelds beste spionnen-agentschap in het voormalig hoofdkantoor van de ter ziele gegane Spy Kids divisie. Als de wereld bedreigd wordt door de Timekeeper wordt ze weer opgeroepen door de OSS om in actie te komen. Met het einde van de wereld in zicht besluit de tweeling hun meningsverschillen opzij te zetten en de handen in elkaar te slaan met Marissa om de wereld te redden.

Dutch spoken,
A retired spy is called back into action, and to bond with her new step-children, she invites them along for the adventure to stop the evil Timekeeper from taking over the world.

------------------------ Dutch Friends ------------------------
---------------------------------------------------------------
- Bezoek ook eens mijn vrienden op:  http://www.Film-Test.nl --
----- voor mijn Nederlandse Sync. ondertitels ---- en meer ----
------- http://www.Film-Test.nl ---- voor Films en meer -------
---------------------------------------------------------------

General:

Complete name                    : Spy Kids 4\All the Time in the World.avi
Format                           : AVI
Format/Info                      : Audio Video Interleave
File size                        : 1.54 GiB
Duration                         : 1h 24mn
Overall bit rate                 : 2 614 Kbps

Video:

Format                           : MPEG-4 Visual
Format profile                   : Simple@L3
Format settings, BVOP            : No
Format settings, QPel            : No
Format settings, GMC             : No warppoints
Format settings, Matrix          : Default (H.263)
Codec ID                         : XVID
Codec ID/Hint                    : XviD
Duration                         : 1h 24mn
Bit rate                         : 2 155 Kbps
Width                            : 652 pixels
Height                           : 352 pixels
Display aspect ratio             : 1.852
Frame rate                       : 25.000 fps
Color space                      : YUV
Chroma subsampling               : 4:2:0
Bit depth                        : 8 bits
Scan type                        : Progressive
Compression mode                 : Lossy
Bits/(Pixel*Frame)               : 0.376
Stream size                      : 1.27 GiB (82%)
Writing library                  : XviD 1.1.2 (UTC 2006-11-01)

Audio:

Format                           : AC-3
Format/Info                      : Audio Coding 3
Mode extension                   : CM (complete main)
Codec ID                         : 2000
Duration                         : 1h 24mn
Bit rate mode                    : Constant
Bit rate                         : 448 Kbps
Channel(s)                       : 6 channels
Channel positions                : Front: L C R, Side: L R, LFE
Sampling rate                    : 48.0 KHz
Bit depth                        : 16 bits
Compression mode                 : Lossy
Stream size                      : 270 MiB (17%)
Alignment                        : Aligned on interleaves
Interleave, duration             : 32 ms (0.80 video frame)

